%TF.GenerationSoftware,KiCad,Pcbnew,8.0.0*%
%TF.CreationDate,2024-06-13T19:53:01+09:00*%
%TF.ProjectId,GCCPro_Flexible_board,47434350-726f-45f4-966c-657869626c65,rev?*%
%TF.SameCoordinates,Original*%
%TF.FileFunction,Copper,L1,Top*%
%TF.FilePolarity,Positive*%
%FSLAX46Y46*%
G04 Gerber Fmt 4.6, Leading zero omitted, Abs format (unit mm)*
G04 Created by KiCad (PCBNEW 8.0.0) date 2024-06-13 19:53:01*
%MOMM*%
%LPD*%
G01*
G04 APERTURE LIST*
G04 Aperture macros list*
%AMFreePoly0*
4,1,369,1.800000,-0.940000,1.327052,-0.940000,1.358435,-0.951225,1.686875,-1.109052,1.997071,-1.300262,2.285640,-1.522772,2.549437,-1.774156,2.785587,-2.051673,2.991515,-2.352299,3.164978,-2.672757,3.304083,-3.009554,3.407316,-3.359019,3.473550,-3.717343,3.502064,-4.080619,3.492547,-4.444888,3.445102,-4.806179,3.360247,-5.160555,3.238907,-5.504153,3.082405,-5.833227,3.032582,-5.893288,
2.963567,-5.929710,2.885867,-5.936949,2.811312,-5.913902,2.751251,-5.864079,2.714829,-5.795064,2.707590,-5.717364,2.730636,-5.642809,2.810594,-5.495046,2.937574,-5.183945,3.030076,-4.860911,3.087012,-4.529752,3.107709,-4.194372,3.091924,-3.858726,3.039842,-3.526769,2.952078,-3.202415,2.829666,-2.889488,2.674050,-2.591677,2.487063,-2.312493,2.340111,-2.137589,2.151551,-2.326546,
2.335068,-2.558123,2.508206,-2.837646,2.647956,-3.135270,2.752455,-3.447023,2.820309,-3.768746,2.850611,-4.096148,2.842959,-4.424860,2.797453,-4.750497,2.714701,-5.068714,2.595807,-5.375266,2.442358,-5.666064,2.256400,-5.937228,2.040414,-6.185139,1.797282,-6.406492,1.530247,-6.598332,1.242873,-6.758100,0.938992,-6.883665,0.622659,-6.973352,0.298095,-7.025963,-0.030371,-7.040798,
-0.358357,-7.017658,-0.681486,-6.956852,-0.995449,-6.859192,-1.296056,-6.725979,-1.579297,-6.558993,-1.613371,-6.520025,-1.623396,-6.469242,-1.606687,-6.420249,-1.567719,-6.386175,-1.516936,-6.376150,-1.467943,-6.392858,-1.335582,-6.481629,-1.051429,-6.626042,-0.752000,-6.735315,-0.441623,-6.807869,-0.124782,-6.842654,0.193943,-6.839169,0.509948,-6.797463,0.818664,-6.718140,1.115632,-6.602345,
1.396558,-6.451752,1.657385,-6.268537,1.894342,-6.055349,2.104005,-5.815266,2.283344,-5.551760,2.429769,-5.268638,2.541161,-4.969992,2.615913,-4.660137,2.652943,-4.343550,2.651717,-4.024808,2.612253,-3.708516,2.535119,-3.399245,2.421432,-3.101464,2.272834,-2.819477,2.091473,-2.557359,2.011359,-2.467033,1.558538,-2.920807,1.610019,-2.979810,1.761943,-3.211240,1.880960,-3.461191,
1.964855,-3.725013,2.012066,-3.997798,2.021717,-4.274470,1.993626,-4.549881,1.928317,-4.818907,1.827005,-5.076544,1.691574,-5.317996,1.524546,-5.538771,1.329026,-5.734763,1.108654,-5.902323,0.867529,-6.038336,0.610138,-6.140269,0.341270,-6.206227,0.065927,-6.234981,-0.210767,-6.225998,-0.483665,-6.179445,-0.747689,-6.096187,-0.997926,-5.977774,-1.035015,-5.941664,-1.049079,-5.891847,
-1.036351,-5.841673,-1.000241,-5.804584,-0.950424,-5.790520,-0.900249,-5.803247,-0.785618,-5.867362,-0.540416,-5.961594,-0.284268,-6.019834,-0.022427,-6.040888,0.239736,-6.024323,0.496844,-5.970479,0.743625,-5.880460,0.975016,-5.756114,1.186271,-5.599989,1.373059,-5.415289,1.531548,-5.205801,1.658487,-4.975823,1.751274,-4.730070,1.808004,-4.473583,1.827514,-4.211622,1.809405,-3.949562,
1.754048,-3.692775,1.662577,-3.446529,1.536870,-3.215875,1.419986,-3.059650,0.980342,-3.500220,1.036851,-3.580428,1.126172,-3.769902,1.181496,-3.971936,1.201167,-4.180483,1.184595,-4.389298,1.132277,-4.592132,1.045780,-4.782911,0.927692,-4.955925,0.781549,-5.105994,0.611725,-5.228625,0.423305,-5.320148,0.221929,-5.377823,0.013626,-5.399923,-0.195368,-5.385786,-0.398798,-5.335836,
-0.441834,-5.307071,-0.464721,-5.260643,-0.461328,-5.208990,-0.432563,-5.165954,-0.386135,-5.143067,-0.334482,-5.146459,-0.242409,-5.177657,-0.049764,-5.203940,0.144358,-5.193019,0.332839,-5.145293,0.508765,-5.062513,0.665686,-4.947715,0.797846,-4.805109,0.900398,-4.639924,0.969581,-4.458220,1.002859,-4.266660,0.999009,-4.072269,0.958175,-3.882176,0.881852,-3.703353,0.839723,-3.641135,
0.386597,-4.095214,0.403113,-4.199486,0.383383,-4.324055,0.326125,-4.436430,0.236944,-4.525611,0.124569,-4.582869,0.000000,-4.602599,-0.124569,-4.582869,-0.236944,-4.525611,-0.326125,-4.436430,-0.383383,-4.324055,-0.403113,-4.199486,-0.383383,-4.074917,-0.326125,-3.962542,-0.236944,-3.873361,-0.124569,-3.816103,0.000000,-3.796373,0.108013,-3.813480,0.563568,-3.356967,0.473797,-3.296600,
0.294731,-3.220849,0.104509,-3.180622,-0.089894,-3.177394,-0.281347,-3.211283,-0.462829,-3.281047,-0.627684,-3.384127,-0.769867,-3.516742,-0.884164,-3.674028,-0.966381,-3.850219,-1.013504,-4.038851,-1.023805,-4.233007,-0.996906,-4.425567,-0.965415,-4.517540,-0.961857,-4.569181,-0.984596,-4.615683,-1.027540,-4.644585,-1.079181,-4.648143,-1.125683,-4.625404,-1.154584,-4.582460,-1.205185,-4.379191,
-1.219989,-4.170243,-1.198555,-3.961871,-1.141525,-3.760312,-1.050604,-3.571600,-0.928516,-3.401385,-0.778915,-3.254763,-0.606279,-3.136123,-0.415778,-3.049016,-0.213112,-2.996051,-0.004351,-2.978812,0.204257,-2.997816,0.406467,-3.052494,0.596226,-3.141209,0.703774,-3.216466,1.139778,-2.779543,0.983289,-2.662594,0.752566,-2.537011,0.506271,-2.445674,0.249454,-2.390456,-0.012616,-2.372488,
-0.274566,-2.392141,-0.531022,-2.449010,-0.776725,-2.541930,-1.006635,-2.668993,-1.216036,-2.827596,-1.400635,-3.014484,-1.556645,-3.225824,-1.680866,-3.457282,-1.770751,-3.704111,-1.824456,-3.961249,-1.840879,-4.223421,-1.819684,-4.485250,-1.761305,-4.741367,-1.666940,-4.986518,-1.602764,-5.101114,-1.590008,-5.151282,-1.604046,-5.201106,-1.641114,-5.237236,-1.691282,-5.249992,-1.741106,-5.235954,
-1.777236,-5.198885,-1.895785,-4.948712,-1.979186,-4.684734,-2.025888,-4.411861,-2.035021,-4.135171,-2.006415,-3.859813,-1.940603,-3.590909,-1.838809,-3.333463,-1.702928,-3.092265,-1.535486,-2.871802,-1.339601,-2.676176,-1.118916,-2.509028,-0.877537,-2.373467,-0.619956,-2.272015,-0.350965,-2.206560,-0.075569,-2.178320,0.201109,-2.187821,0.473919,-2.234885,0.737787,-2.318636,0.987802,-2.437518,
1.219313,-2.589317,1.278302,-2.640728,1.731078,-2.186999,1.641379,-2.107537,1.379151,-1.926334,1.097074,-1.777907,0.799224,-1.664400,0.489907,-1.587454,0.173591,-1.548180,-0.145152,-1.547147,-0.461716,-1.584369,-0.771526,-1.659308,-1.070105,-1.770882,-1.353138,-1.917477,-1.616536,-2.096976,-1.856491,-2.306784,-2.069537,-2.543870,-2.252593,-2.804808,-2.403016,-3.085826,-2.518631,-3.382863,
-2.597768,-3.691628,-2.639283,-4.007657,-2.642575,-4.326385,-2.607598,-4.643204,-2.534857,-4.953538,-2.425402,-5.252900,-2.280817,-5.536965,-2.191967,-5.669273,-2.175228,-5.718255,-2.185222,-5.769045,-2.219273,-5.808033,-2.268255,-5.824772,-2.319045,-5.814778,-2.358032,-5.780727,-2.525191,-5.497587,-2.658586,-5.197061,-2.756436,-4.883158,-2.817438,-4.560065,-2.840776,-4.232093,-2.826140,-3.903618,
-2.773724,-3.579022,-2.684229,-3.262635,-2.558848,-2.958679,-2.399254,-2.671207,-2.207575,-2.404057,-1.986370,-2.160791,-1.738589,-1.944655,-1.467538,-1.758533,-1.176833,-1.604907,-0.870353,-1.485828,-0.552186,-1.402884,-0.226577,-1.357181,0.102131,-1.349330,0.429550,-1.379434,0.751315,-1.447093,1.063131,-1.551403,1.360839,-1.690974,1.640468,-1.863942,1.871210,-2.046572,2.062035,-1.855345,
2.028141,-1.822911,1.761615,-1.618285,1.474475,-1.443761,1.170107,-1.301395,0.852098,-1.192868,0.524198,-1.119457,0.190271,-1.082028,-0.145745,-1.081023,-0.479889,-1.116453,-0.808223,-1.187901,-1.126875,-1.294525,-1.432090,-1.435067,-1.720268,-1.607870,-1.854156,-1.709364,-1.924341,-1.743478,-2.002238,-1.748137,-2.075988,-1.722631,-2.134364,-1.670844,-2.168478,-1.600659,-2.173137,-1.522762,
-2.147631,-1.449012,-2.095843,-1.390637,-1.794390,-1.185921,-1.473236,-1.013751,-1.135881,-0.876003,-0.800000,-0.778252,-0.800000,1.660000,1.800000,1.660000,1.800000,-0.940000,1.800000,-0.940000,$1*%
%AMFreePoly1*
4,1,344,0.184352,6.741689,0.484663,6.699208,0.777373,6.619760,1.057950,6.504575,1.322051,6.355437,1.356674,6.316957,1.367418,6.266320,1.351404,6.217096,1.312924,6.182473,1.262287,6.171729,1.213062,6.187742,1.090933,6.267190,0.828077,6.392958,0.551130,6.483576,0.264771,6.537515,-0.026165,6.553863,-0.316764,6.532345,-0.602119,6.473323,-0.877410,6.377795,-1.137989,6.247374,
-1.379454,6.084262,-1.597728,5.891214,-1.789124,5.671490,-1.950410,5.428802,-2.078862,5.167247,-2.172312,4.891243,-2.229180,4.605451,-2.248506,4.314698,-2.229964,4.023894,-2.173867,3.737950,-2.081163,3.461695,-1.953416,3.199795,-1.792785,2.956672,-1.714002,2.865735,-1.268111,3.313007,-1.356882,3.431702,-1.472652,3.648641,-1.554255,3.880603,-1.599808,4.122244,-1.608264,4.367996,
-1.579427,4.612196,-1.513961,4.849219,-1.413375,5.073602,-1.279987,5.280176,-1.116869,5.464182,-0.927781,5.621379,-0.717078,5.748146,-0.489617,5.841562,-0.250636,5.899474,-0.005644,5.920549,0.239716,5.904300,0.479789,5.851102,0.709046,5.762181,0.748376,5.728527,0.765611,5.679717,0.756131,5.628828,0.722477,5.589498,0.673667,5.572263,0.622778,5.581743,0.516627,5.632494,
0.290513,5.697668,0.056756,5.724736,-0.178268,5.712961,-0.408149,5.662664,-0.626616,5.575215,-0.827710,5.453002,-1.005947,5.299357,-1.156463,5.118470,-1.275155,4.915278,-1.358784,4.695320,-1.405069,4.464598,-1.412748,4.229404,-1.381611,3.996154,-1.312508,3.771210,-1.207323,3.560708,-1.128810,3.452739,-0.711422,3.871421,-0.685585,3.892624,-0.749560,4.020429,-0.791857,4.186148,
-0.797962,4.357071,-0.767594,4.525386,-0.702143,4.683399,-0.604600,4.823889,-0.479422,4.940433,-0.332332,5.027706,-0.170052,5.081717,0.000000,5.100000,0.050000,5.086603,0.086603,5.050000,0.100000,5.000000,0.086603,4.950000,0.050000,4.913397,0.000000,4.900000,-0.074805,4.900125,-0.219838,4.863397,-0.351417,4.792190,-0.461490,4.690862,-0.543319,4.565612,-0.591898,4.424108,
-0.604252,4.275008,-0.579627,4.127437,-0.519529,3.990428,-0.427636,3.872364,-0.309572,3.780471,-0.172563,3.720373,-0.024992,3.695748,0.124108,3.708102,0.265612,3.756681,0.390862,3.838510,0.492190,3.948583,0.563397,4.080162,0.600125,4.225195,0.600000,4.300000,0.613397,4.350000,0.650000,4.386603,0.700000,4.400000,0.750000,4.386603,0.786603,4.350000,0.800000,4.300000,
0.781717,4.129948,0.727706,3.967668,0.640433,3.820578,0.523889,3.695400,0.383399,3.597857,0.225386,3.532406,0.057071,3.502038,-0.113852,3.508143,-0.279571,3.550440,-0.407901,3.614677,-0.850925,3.170281,-0.708397,3.070374,-0.496099,2.968862,-0.269989,2.903676,-0.036233,2.876596,0.198792,2.888359,0.428675,2.938645,0.647147,3.026082,0.848247,3.148285,1.026491,3.301921,
1.177017,3.482800,1.295719,3.685987,1.379360,3.905940,1.425657,4.136660,1.433348,4.371853,1.402223,4.605105,1.333131,4.830052,1.280544,4.935306,1.270181,4.986022,1.286566,5.035124,1.325306,5.069456,1.376022,5.079819,1.425124,5.063434,1.459456,5.024694,1.552346,4.797017,1.609706,4.557904,1.630214,4.312863,1.613398,4.067542,1.559646,3.827592,1.470195,3.598542,
1.347107,3.385669,1.193218,3.193878,1.012074,3.027589,0.807848,2.890633,0.585246,2.786164,0.349396,2.716591,0.105734,2.683517,-0.140128,2.687702,-0.382523,2.729052,-0.615868,2.806612,-0.834785,2.918597,-0.990143,3.030632,-1.433126,2.586277,-1.384230,2.542797,-1.143206,2.379034,-0.882980,2.247911,-0.607948,2.151640,-0.322753,2.091849,-0.032213,2.069547,0.258766,2.085110,
0.545269,2.138276,0.822459,2.228147,1.085654,2.353205,1.330408,2.511338,1.552589,2.699876,1.748445,2.915634,1.914667,3.154969,2.048448,3.413839,2.147530,3.687871,2.210238,3.972439,2.235514,4.262735,2.222931,4.553858,2.172701,4.840891,2.085673,5.118986,1.963316,5.383448,1.885455,5.506595,1.870079,5.556023,1.881477,5.606516,1.916595,5.644545,1.966023,5.659921,
2.016516,5.648523,2.054545,5.613404,2.200254,5.347397,2.311800,5.065353,2.387455,4.771640,2.426047,4.470805,2.426980,4.167506,2.390238,3.866439,2.316391,3.572266,2.206582,3.289541,2.062512,3.022643,1.886410,2.775703,1.681004,2.552545,1.449474,2.356624,1.195405,2.190974,0.922730,2.058160,0.635672,1.960237,0.338675,1.898723,0.036338,1.874569,-0.266658,1.888149,
-0.565622,1.939254,-0.855925,2.027092,-1.133071,2.150303,-1.392770,2.306980,-1.571312,2.447663,-2.054966,1.962512,-2.037559,1.945767,-1.768964,1.738645,-1.479411,1.562006,-1.172343,1.417950,-0.851414,1.308191,-0.520440,1.234034,-0.183359,1.196362,0.155819,1.195623,0.493061,1.231825,0.824354,1.304538,1.145759,1.412897,1.453452,1.555613,1.743772,1.730989,1.878561,1.833910,
1.948617,1.868287,2.026496,1.873237,2.100341,1.848008,2.158910,1.796439,2.193287,1.726383,2.198237,1.648504,2.173008,1.574659,2.121439,1.516090,1.829662,1.315612,1.519152,1.145586,1.193075,1.007746,0.854759,0.903498,0.507653,0.833906,0.196204,0.803651,0.196529,0.562473,0.300000,0.519615,0.424264,0.424264,0.519615,0.300000,0.579555,0.155291,0.600000,0.000000,
0.579555,-0.155291,0.519615,-0.300000,0.424264,-0.424264,0.300000,-0.519615,0.198052,-0.561842,0.198971,-1.240000,1.800000,-1.240000,1.800000,-3.840000,-0.800000,-3.840000,-0.800000,-1.240000,-0.197239,-1.240000,-0.198155,-0.561799,-0.300000,-0.519615,-0.424264,-0.424264,-0.519615,-0.300000,-0.579555,-0.155291,-0.600000,0.000000,-0.579555,0.155291,-0.519615,0.300000,-0.424264,0.424264,
-0.300000,0.519615,-0.199676,0.561170,-0.200000,0.800000,-0.199873,0.801287,-0.550767,0.838351,-0.897276,0.910857,-1.234704,1.017943,-1.559611,1.158518,-1.868682,1.331146,-2.158765,1.534068,-2.426901,1.765214,-2.670356,2.022227,-2.886646,2.302484,-3.073565,2.603128,-3.229207,2.921092,-3.351985,3.253133,-3.440645,3.595864,-3.494284,3.945790,-3.512355,4.299342,-3.494674,4.652914,
-3.441420,5.002899,-3.353137,5.345728,-3.230726,5.677904,-3.075434,5.996039,-3.025104,6.055675,-2.955783,6.091511,-2.878025,6.098092,-2.803667,6.074414,-2.744031,6.024084,-2.708195,5.954763,-2.701614,5.877005,-2.725292,5.802647,-2.807227,5.654164,-2.937904,5.341169,-3.033719,5.015804,-3.093531,4.681940,-3.116630,4.343548,-3.102739,4.004653,-3.052025,3.669287,-2.965090,3.341438,
-2.842970,3.025006,-2.687115,2.723755,-2.499381,2.441269,-2.334286,2.243530,-1.854790,2.724511,-2.028694,2.951183,-2.181997,3.212887,-2.301612,3.491605,-2.385688,3.783019,-2.432921,4.082619,-2.442581,4.385766,-2.414518,4.687765,-2.349166,4.983942,-2.247538,5.269709,-2.111208,5.540642,-1.942285,5.792548,-1.743385,6.021524,-1.517589,6.224026,-1.268391,6.396918,-0.999651,6.537524,
-0.715530,6.643666,-0.420426,6.713701,-0.118909,6.746545,0.184352,6.741689,0.184352,6.741689,$1*%
G04 Aperture macros list end*
%TA.AperFunction,ComponentPad*%
%ADD10C,2.000000*%
%TD*%
%TA.AperFunction,SMDPad,CuDef*%
%ADD11FreePoly0,90.000000*%
%TD*%
%TA.AperFunction,ComponentPad*%
%ADD12C,0.800000*%
%TD*%
%TA.AperFunction,SMDPad,CuDef*%
%ADD13FreePoly1,90.000000*%
%TD*%
%TA.AperFunction,SMDPad,CuDef*%
%ADD14FreePoly0,225.000000*%
%TD*%
%TA.AperFunction,SMDPad,CuDef*%
%ADD15FreePoly1,225.000000*%
%TD*%
%TA.AperFunction,SMDPad,CuDef*%
%ADD16FreePoly0,270.000000*%
%TD*%
%TA.AperFunction,SMDPad,CuDef*%
%ADD17FreePoly1,270.000000*%
%TD*%
%TA.AperFunction,Conductor*%
%ADD18C,0.250000*%
%TD*%
G04 APERTURE END LIST*
D10*
%TO.P,,4,Pin_4*%
%TO.N,N/C*%
X116888500Y-110001500D03*
%TD*%
%TO.P,,4,Pin_4*%
%TO.N,N/C*%
X134938500Y-90181500D03*
%TD*%
%TO.P,,4,Pin_4*%
%TO.N,N/C*%
X135108500Y-101471500D03*
%TD*%
%TO.P,,4,Pin_4*%
%TO.N,N/C*%
X124288500Y-118571500D03*
%TD*%
D11*
%TO.P,SW1,1,1*%
%TO.N,N/C*%
X142281501Y-106004393D03*
D12*
%TO.P,SW1,2,2*%
X150781500Y-106004393D03*
D13*
X150781500Y-106004393D03*
%TD*%
D14*
%TO.P,SW1,1,1*%
%TO.N,N/C*%
X137501348Y-98724241D03*
D12*
%TO.P,SW1,2,2*%
X131490941Y-92713834D03*
D15*
X131490941Y-92713834D03*
%TD*%
D11*
%TO.P,SW1,1,1*%
%TO.N,N/C*%
X130331500Y-116254393D03*
D12*
%TO.P,SW1,2,2*%
X138831500Y-116254393D03*
D13*
X138831500Y-116254393D03*
%TD*%
D16*
%TO.P,SW1,1,1*%
%TO.N,N/C*%
X126781886Y-106005551D03*
D12*
%TO.P,SW1,2,2*%
X118281886Y-106005551D03*
D17*
X118281886Y-106005551D03*
%TD*%
D10*
%TO.P,,*%
%TO.N,*%
X148468500Y-98021500D03*
%TD*%
D18*
%TO.N,*%
X138831500Y-116254393D02*
X138831500Y-106997623D01*
X150781500Y-107798500D02*
X150781500Y-106004393D01*
X146746318Y-110081500D02*
X148498500Y-110081500D01*
X138831500Y-119038500D02*
X138831500Y-116254393D01*
X132728500Y-120531500D02*
X137338500Y-120531500D01*
X134153967Y-90181500D02*
X134938500Y-90181500D01*
X119788500Y-110581500D02*
X126061918Y-110581500D01*
X137501348Y-98724241D02*
X147765759Y-98724241D01*
X125478500Y-98811500D02*
X126781886Y-100114886D01*
X124288500Y-118571500D02*
X125288500Y-119571500D01*
X131588500Y-119571500D02*
X132528500Y-120511500D01*
X125878607Y-111801500D02*
X118688500Y-111801500D01*
X138831500Y-106997623D02*
X135196939Y-103363061D01*
X118688500Y-111801500D02*
X116888500Y-110001500D01*
X148498500Y-110081500D02*
X150781500Y-107798500D01*
X130331500Y-116254393D02*
X125878607Y-111801500D01*
X130153275Y-94051500D02*
X131490941Y-92713834D01*
X125478500Y-92271500D02*
X125478500Y-98811500D01*
X125288500Y-119571500D02*
X131588500Y-119571500D01*
X133909859Y-89152859D02*
X128597141Y-89152859D01*
X134938500Y-90181500D02*
X133909859Y-89152859D01*
X126061918Y-110581500D02*
X133280357Y-103363061D01*
X130078500Y-94051500D02*
X130153275Y-94051500D01*
X135196939Y-103363061D02*
X130078500Y-98244623D01*
X118281886Y-106005551D02*
X118281886Y-109074886D01*
X137748608Y-101471500D02*
X134928500Y-101471500D01*
X142281501Y-106004393D02*
X137748608Y-101471500D01*
X132528500Y-120511500D02*
X132708500Y-120511500D01*
X133280357Y-103363061D02*
X135196939Y-103363061D01*
X138831500Y-116254393D02*
X140573425Y-116254393D01*
X132708500Y-120511500D02*
X132728500Y-120531500D01*
X137338500Y-120531500D02*
X138831500Y-119038500D01*
X130078500Y-98244623D02*
X130078500Y-94051500D01*
X128597141Y-89152859D02*
X125478500Y-92271500D01*
X126781886Y-100114886D02*
X126781886Y-106005551D01*
X118281886Y-109074886D02*
X119788500Y-110581500D01*
X147765759Y-98724241D02*
X148468500Y-98021500D01*
X140573425Y-116254393D02*
X146746318Y-110081500D01*
%TD*%
%TA.AperFunction,NonConductor*%
G36*
X133790709Y-89498044D02*
G01*
X133811351Y-89514678D01*
X133827098Y-89530425D01*
X133860583Y-89591748D01*
X133855599Y-89661440D01*
X133850418Y-89673376D01*
X133814273Y-89745967D01*
X133814266Y-89745983D01*
X133753385Y-89959961D01*
X133753384Y-89959964D01*
X133732857Y-90181499D01*
X133732857Y-90181500D01*
X133753384Y-90403035D01*
X133753385Y-90403037D01*
X133814269Y-90617023D01*
X133814275Y-90617038D01*
X133913438Y-90816183D01*
X133913443Y-90816191D01*
X134047520Y-90993738D01*
X134211937Y-91143623D01*
X134211939Y-91143625D01*
X134401095Y-91260745D01*
X134401096Y-91260745D01*
X134401099Y-91260747D01*
X134608560Y-91341118D01*
X134827257Y-91382000D01*
X134827259Y-91382000D01*
X135049741Y-91382000D01*
X135049743Y-91382000D01*
X135268440Y-91341118D01*
X135475901Y-91260747D01*
X135665062Y-91143624D01*
X135829481Y-90993736D01*
X135963558Y-90816189D01*
X136050414Y-90641760D01*
X136058038Y-90626449D01*
X136105541Y-90575211D01*
X136173203Y-90557790D01*
X136239544Y-90579715D01*
X136283499Y-90634027D01*
X136286423Y-90641760D01*
X136839968Y-92267837D01*
X136842937Y-92337644D01*
X136807695Y-92397974D01*
X136745431Y-92429674D01*
X136675912Y-92422679D01*
X136657245Y-92413186D01*
X136512206Y-92323258D01*
X136453562Y-92286897D01*
X136106025Y-92115888D01*
X136106020Y-92115886D01*
X135743463Y-91979609D01*
X135743458Y-91979607D01*
X135743451Y-91979605D01*
X135369313Y-91879355D01*
X135369312Y-91879354D01*
X135369309Y-91879354D01*
X135369305Y-91879353D01*
X134987170Y-91816091D01*
X134600694Y-91790422D01*
X134600691Y-91790422D01*
X134564190Y-91791569D01*
X134213548Y-91802589D01*
X134213533Y-91802590D01*
X133829434Y-91852476D01*
X133531742Y-91921204D01*
X133452025Y-91939608D01*
X133452022Y-91939608D01*
X133452010Y-91939612D01*
X133084925Y-92063150D01*
X132731627Y-92221927D01*
X132642210Y-92273137D01*
X132395503Y-92414428D01*
X132395500Y-92414429D01*
X132392874Y-92415934D01*
X132392380Y-92415071D01*
X132329157Y-92433436D01*
X132262175Y-92413557D01*
X132216574Y-92360621D01*
X132214970Y-92356924D01*
X132204896Y-92332603D01*
X132178074Y-92286145D01*
X132095629Y-92178700D01*
X132081902Y-92160810D01*
X132081896Y-92160803D01*
X132043971Y-92122878D01*
X132043964Y-92122872D01*
X131918629Y-92026700D01*
X131872183Y-91999884D01*
X131872177Y-91999881D01*
X131872175Y-91999880D01*
X131872173Y-91999879D01*
X131726215Y-91939420D01*
X131726212Y-91939419D01*
X131674396Y-91925535D01*
X131517764Y-91904915D01*
X131517763Y-91904915D01*
X131464119Y-91904915D01*
X131464117Y-91904915D01*
X131340381Y-91921204D01*
X131271346Y-91910438D01*
X131236519Y-91885948D01*
X131133849Y-91783278D01*
X131100366Y-91721957D01*
X131105350Y-91652265D01*
X131133848Y-91607920D01*
X131325124Y-91416646D01*
X131353816Y-91380669D01*
X131384022Y-91294345D01*
X131373782Y-91203464D01*
X131325124Y-91126026D01*
X129889136Y-89690039D01*
X129855652Y-89628717D01*
X129860636Y-89559025D01*
X129902508Y-89503092D01*
X129967972Y-89478675D01*
X129976818Y-89478359D01*
X133723670Y-89478359D01*
X133790709Y-89498044D01*
G37*
%TD.AperFunction*%
%TA.AperFunction,NonConductor*%
G36*
X130888413Y-93879202D02*
G01*
X130944346Y-93921074D01*
X130968763Y-93986538D01*
X130955954Y-94050906D01*
X130904075Y-94154507D01*
X130765265Y-94516116D01*
X130662405Y-94889545D01*
X130650191Y-94960262D01*
X130619383Y-95022973D01*
X130559562Y-95059073D01*
X130489720Y-95057100D01*
X130432032Y-95017681D01*
X130404813Y-94953332D01*
X130404000Y-94939157D01*
X130404000Y-94312463D01*
X130423685Y-94245424D01*
X130440315Y-94224786D01*
X130757399Y-93907702D01*
X130818721Y-93874218D01*
X130888413Y-93879202D01*
G37*
%TD.AperFunction*%
%TA.AperFunction,NonConductor*%
G36*
X138011111Y-93404227D02*
G01*
X144196132Y-96973723D01*
X144255314Y-97007892D01*
X144255354Y-97007915D01*
X144255365Y-97007919D01*
X144255677Y-97008000D01*
X144318983Y-97024952D01*
X144319000Y-97024962D01*
X144319002Y-97024957D01*
X144382608Y-97042000D01*
X144382612Y-97042000D01*
X144382616Y-97042001D01*
X144382690Y-97042011D01*
X144382691Y-97042010D01*
X144382695Y-97042012D01*
X144451440Y-97042000D01*
X144451452Y-97042000D01*
X147454805Y-97042000D01*
X147521844Y-97061685D01*
X147567599Y-97114489D01*
X147577543Y-97183647D01*
X147553759Y-97240727D01*
X147443443Y-97386808D01*
X147443438Y-97386816D01*
X147344275Y-97585961D01*
X147344269Y-97585976D01*
X147283385Y-97799962D01*
X147283384Y-97799964D01*
X147262857Y-98021499D01*
X147262857Y-98021500D01*
X147283384Y-98243035D01*
X147284438Y-98248668D01*
X147282679Y-98248996D01*
X147282168Y-98310663D01*
X147243907Y-98369125D01*
X147180112Y-98397621D01*
X147163485Y-98398741D01*
X138649201Y-98398741D01*
X138582162Y-98379056D01*
X138561520Y-98362422D01*
X138020291Y-97821193D01*
X137986806Y-97759870D01*
X137991790Y-97690178D01*
X138002129Y-97668910D01*
X138012329Y-97652202D01*
X138180910Y-97303475D01*
X138314656Y-96939963D01*
X138412292Y-96565133D01*
X138472885Y-96182565D01*
X138495857Y-95795909D01*
X138480988Y-95408857D01*
X138428420Y-95025104D01*
X138428416Y-95025089D01*
X138428416Y-95025085D01*
X138338658Y-94648319D01*
X138338654Y-94648307D01*
X138212555Y-94282088D01*
X138212548Y-94282072D01*
X138087364Y-94008647D01*
X138051310Y-93929897D01*
X138051307Y-93929890D01*
X137856478Y-93595141D01*
X137856467Y-93595123D01*
X137848562Y-93584163D01*
X137825310Y-93518275D01*
X137841372Y-93450277D01*
X137891646Y-93401756D01*
X137960172Y-93388118D01*
X138011111Y-93404227D01*
G37*
%TD.AperFunction*%
%TA.AperFunction,NonConductor*%
G36*
X130609203Y-96470967D02*
G01*
X130646977Y-96529745D01*
X130649012Y-96537622D01*
X130709272Y-96807210D01*
X130709273Y-96807214D01*
X130830247Y-97175159D01*
X130830252Y-97175173D01*
X130986562Y-97529573D01*
X131176700Y-97867013D01*
X131176705Y-97867021D01*
X131398863Y-98184297D01*
X131398872Y-98184308D01*
X131650941Y-98478402D01*
X131650947Y-98478408D01*
X131728115Y-98557762D01*
X131728127Y-98557774D01*
X132015064Y-98817953D01*
X132015069Y-98817957D01*
X132064076Y-98854352D01*
X132326025Y-99048892D01*
X132658038Y-99248386D01*
X133007933Y-99414528D01*
X133007939Y-99414530D01*
X133007952Y-99414535D01*
X133071437Y-99437391D01*
X133372371Y-99545734D01*
X133747873Y-99640751D01*
X134130855Y-99698671D01*
X134517661Y-99718943D01*
X134870619Y-99702915D01*
X134904579Y-99701374D01*
X134904580Y-99701373D01*
X134904599Y-99701373D01*
X135287976Y-99646127D01*
X135460207Y-99603822D01*
X135530005Y-99606947D01*
X135577465Y-99636562D01*
X136875222Y-100934319D01*
X136908707Y-100995642D01*
X136903723Y-101065334D01*
X136861851Y-101121267D01*
X136796387Y-101145684D01*
X136787541Y-101146000D01*
X136357675Y-101146000D01*
X136290636Y-101126315D01*
X136244881Y-101073511D01*
X136238409Y-101055935D01*
X136232731Y-101035980D01*
X136232729Y-101035972D01*
X136212647Y-100995642D01*
X136133563Y-100836820D01*
X136133556Y-100836808D01*
X135999479Y-100659261D01*
X135835062Y-100509376D01*
X135835060Y-100509374D01*
X135645904Y-100392254D01*
X135645898Y-100392252D01*
X135438440Y-100311882D01*
X135219743Y-100271000D01*
X134997257Y-100271000D01*
X134778560Y-100311882D01*
X134647364Y-100362707D01*
X134571101Y-100392252D01*
X134571095Y-100392254D01*
X134381939Y-100509374D01*
X134381937Y-100509376D01*
X134217520Y-100659261D01*
X134083443Y-100836808D01*
X134083438Y-100836816D01*
X133984275Y-101035961D01*
X133984269Y-101035976D01*
X133923385Y-101249962D01*
X133923384Y-101249964D01*
X133915597Y-101334002D01*
X133889810Y-101398939D01*
X133833009Y-101439626D01*
X133763228Y-101443146D01*
X133704445Y-101410241D01*
X130440319Y-98146114D01*
X130406834Y-98084791D01*
X130404000Y-98058433D01*
X130404000Y-96564680D01*
X130423685Y-96497641D01*
X130476489Y-96451886D01*
X130545647Y-96441942D01*
X130609203Y-96470967D01*
G37*
%TD.AperFunction*%
%TA.AperFunction,NonConductor*%
G36*
X134266863Y-88181685D02*
G01*
X134287505Y-88198319D01*
X134865583Y-88776397D01*
X134899068Y-88837720D01*
X134894084Y-88907412D01*
X134852212Y-88963345D01*
X134800687Y-88985966D01*
X134608560Y-89021882D01*
X134417684Y-89095828D01*
X134348060Y-89101690D01*
X134286320Y-89068980D01*
X134285209Y-89067882D01*
X134109723Y-88892396D01*
X134109721Y-88892394D01*
X134072609Y-88870967D01*
X134035499Y-88849541D01*
X133994105Y-88838450D01*
X133952712Y-88827359D01*
X128554288Y-88827359D01*
X128471503Y-88849541D01*
X128471496Y-88849544D01*
X128397285Y-88892389D01*
X128397277Y-88892395D01*
X125218037Y-92071635D01*
X125218035Y-92071638D01*
X125175182Y-92145861D01*
X125166383Y-92178700D01*
X125166383Y-92178701D01*
X125166382Y-92178700D01*
X125153000Y-92228645D01*
X125153000Y-98854352D01*
X125175182Y-98937140D01*
X125196608Y-98974250D01*
X125218035Y-99011362D01*
X125218037Y-99011364D01*
X126420067Y-100213394D01*
X126453552Y-100274717D01*
X126456386Y-100301075D01*
X126456386Y-104386243D01*
X126436701Y-104453282D01*
X126383897Y-104499037D01*
X126314739Y-104508981D01*
X126251183Y-104479956D01*
X126219822Y-104438255D01*
X126095309Y-104168786D01*
X126095307Y-104168784D01*
X126095306Y-104168780D01*
X125899300Y-103834696D01*
X125899299Y-103834695D01*
X125899297Y-103834691D01*
X125766631Y-103652093D01*
X125671629Y-103521334D01*
X125414466Y-103231684D01*
X125228787Y-103059743D01*
X125130272Y-102968517D01*
X125130269Y-102968514D01*
X125130265Y-102968511D01*
X124821739Y-102734327D01*
X124653974Y-102631117D01*
X124491838Y-102531370D01*
X124385271Y-102479394D01*
X124143698Y-102361571D01*
X124143694Y-102361569D01*
X124143691Y-102361568D01*
X123789777Y-102229948D01*
X123733804Y-102188130D01*
X123709324Y-102122689D01*
X123709000Y-102113725D01*
X123709000Y-101928792D01*
X123709000Y-101928790D01*
X123674929Y-101746527D01*
X123607948Y-101573628D01*
X123524977Y-101439626D01*
X123510338Y-101415982D01*
X123510336Y-101415980D01*
X123385422Y-101278955D01*
X123237454Y-101167215D01*
X123113439Y-101105462D01*
X123062203Y-101057958D01*
X123044782Y-100990295D01*
X123066708Y-100923955D01*
X123081025Y-100906787D01*
X124309000Y-99678814D01*
X124374892Y-99564686D01*
X124409000Y-99437392D01*
X124409000Y-99305607D01*
X124374892Y-99178314D01*
X124374890Y-99178310D01*
X124315613Y-99075639D01*
X124299000Y-99013639D01*
X124299000Y-92340176D01*
X124318685Y-92273137D01*
X124335319Y-92252495D01*
X128389495Y-88198319D01*
X128450818Y-88164834D01*
X128477176Y-88162000D01*
X134199824Y-88162000D01*
X134266863Y-88181685D01*
G37*
%TD.AperFunction*%
%TA.AperFunction,NonConductor*%
G36*
X149761460Y-98381356D02*
G01*
X149814670Y-98426638D01*
X149819847Y-98435285D01*
X152750948Y-103815572D01*
X152765733Y-103883859D01*
X152741253Y-103949299D01*
X152685279Y-103991117D01*
X152642058Y-103998893D01*
X152021495Y-103998893D01*
X151975771Y-104004044D01*
X151893373Y-104043726D01*
X151836351Y-104115229D01*
X151816000Y-104204388D01*
X151816000Y-105474893D01*
X151796315Y-105541932D01*
X151743511Y-105587687D01*
X151692000Y-105598893D01*
X151546810Y-105598893D01*
X151479771Y-105579208D01*
X151448434Y-105550379D01*
X151372460Y-105451368D01*
X151372454Y-105451361D01*
X151334531Y-105413438D01*
X151334524Y-105413432D01*
X151209198Y-105317266D01*
X151209196Y-105317265D01*
X151209190Y-105317260D01*
X151209182Y-105317255D01*
X151209177Y-105317252D01*
X151162741Y-105290441D01*
X151162721Y-105290431D01*
X151016773Y-105229978D01*
X151016769Y-105229977D01*
X150964968Y-105216098D01*
X150964958Y-105216096D01*
X150964954Y-105216095D01*
X150930147Y-105211512D01*
X150808330Y-105195474D01*
X150808323Y-105195474D01*
X150754677Y-105195474D01*
X150754669Y-105195474D01*
X150598049Y-105216094D01*
X150546231Y-105229979D01*
X150546229Y-105229979D01*
X150546228Y-105229980D01*
X150517587Y-105241843D01*
X150448120Y-105249310D01*
X150385641Y-105218035D01*
X150349989Y-105157945D01*
X150349219Y-105154753D01*
X150300029Y-104938240D01*
X150177767Y-104570706D01*
X150020223Y-104216855D01*
X149828901Y-103880067D01*
X149828896Y-103880059D01*
X149828889Y-103880048D01*
X149605638Y-103563574D01*
X149605632Y-103563567D01*
X149605626Y-103563558D01*
X149352533Y-103270345D01*
X149072034Y-103003230D01*
X148766809Y-102764761D01*
X148766810Y-102764761D01*
X148766804Y-102764757D01*
X148439778Y-102557221D01*
X148439772Y-102557218D01*
X148439769Y-102557216D01*
X148094038Y-102382574D01*
X147931124Y-102319384D01*
X147732918Y-102242505D01*
X147732913Y-102242503D01*
X147411873Y-102152867D01*
X147359845Y-102138341D01*
X147359843Y-102138340D01*
X147359841Y-102138340D01*
X146978396Y-102071081D01*
X146817994Y-102058739D01*
X146592198Y-102041365D01*
X146592191Y-102041364D01*
X146592196Y-102041364D01*
X146483066Y-102039840D01*
X146481500Y-102039819D01*
X146481499Y-102039819D01*
X146094632Y-102058739D01*
X145711441Y-102115324D01*
X145335610Y-102209028D01*
X144970725Y-102338958D01*
X144620236Y-102503886D01*
X144287537Y-102702215D01*
X143975766Y-102932073D01*
X143687932Y-103191240D01*
X143687918Y-103191254D01*
X143426746Y-103477273D01*
X143194715Y-103787436D01*
X143194713Y-103787439D01*
X143102848Y-103939128D01*
X143051283Y-103986274D01*
X142996783Y-103998893D01*
X140787689Y-103998893D01*
X140720650Y-103979208D01*
X140700008Y-103962574D01*
X137948472Y-101211037D01*
X137948471Y-101211036D01*
X137948470Y-101211035D01*
X137900950Y-101183599D01*
X137852736Y-101133032D01*
X137839514Y-101064425D01*
X137865482Y-100999561D01*
X137875271Y-100988532D01*
X138562729Y-100301075D01*
X139386141Y-99477663D01*
X139414833Y-99441686D01*
X139445039Y-99355362D01*
X139434799Y-99264481D01*
X139419235Y-99239712D01*
X139400236Y-99172476D01*
X139420604Y-99105641D01*
X139473872Y-99060427D01*
X139524230Y-99049741D01*
X147813440Y-99049741D01*
X147878717Y-99068314D01*
X147931095Y-99100745D01*
X147931096Y-99100745D01*
X147931099Y-99100747D01*
X148138560Y-99181118D01*
X148357257Y-99222000D01*
X148357259Y-99222000D01*
X148579741Y-99222000D01*
X148579743Y-99222000D01*
X148798440Y-99181118D01*
X149005901Y-99100747D01*
X149195062Y-98983624D01*
X149359481Y-98833736D01*
X149493558Y-98656189D01*
X149592729Y-98457028D01*
X149592732Y-98457017D01*
X149594795Y-98451692D01*
X149596865Y-98452493D01*
X149628921Y-98401622D01*
X149692215Y-98372031D01*
X149761460Y-98381356D01*
G37*
%TD.AperFunction*%
%TA.AperFunction,NonConductor*%
G36*
X121167127Y-102091685D02*
G01*
X121212882Y-102144489D01*
X121222826Y-102213647D01*
X121193801Y-102277203D01*
X121140049Y-102313384D01*
X121123520Y-102319011D01*
X121122426Y-102319384D01*
X120769686Y-102479394D01*
X120434248Y-102673059D01*
X120434226Y-102673073D01*
X120119301Y-102898538D01*
X120119298Y-102898540D01*
X119827858Y-103153677D01*
X119562715Y-103436026D01*
X119562711Y-103436030D01*
X119326383Y-103742909D01*
X119326375Y-103742920D01*
X119121124Y-104071390D01*
X119121118Y-104071402D01*
X118948904Y-104418325D01*
X118948893Y-104418349D01*
X118811357Y-104780412D01*
X118811354Y-104780421D01*
X118709001Y-105157142D01*
X118708032Y-105156878D01*
X118676353Y-105214543D01*
X118614944Y-105247871D01*
X118545265Y-105242707D01*
X118541499Y-105241220D01*
X118517158Y-105231138D01*
X118512836Y-105229980D01*
X118465336Y-105217252D01*
X118308716Y-105196632D01*
X118308709Y-105196632D01*
X118255063Y-105196632D01*
X118255055Y-105196632D01*
X118119016Y-105214543D01*
X118098432Y-105217253D01*
X118098429Y-105217253D01*
X118098417Y-105217256D01*
X118046616Y-105231135D01*
X118046612Y-105231136D01*
X117900664Y-105291589D01*
X117900644Y-105291599D01*
X117854208Y-105318410D01*
X117854187Y-105318424D01*
X117728861Y-105414590D01*
X117728854Y-105414596D01*
X117690931Y-105452519D01*
X117690925Y-105452526D01*
X117614952Y-105551537D01*
X117558524Y-105592740D01*
X117516576Y-105600051D01*
X117371386Y-105600051D01*
X117304347Y-105580366D01*
X117258592Y-105527562D01*
X117247386Y-105476051D01*
X117247386Y-105205548D01*
X117247385Y-105205546D01*
X117246250Y-105195474D01*
X117242234Y-105159823D01*
X117239792Y-105154753D01*
X117202552Y-105077424D01*
X117171859Y-105052947D01*
X117131719Y-104995758D01*
X117128869Y-104925947D01*
X117164215Y-104865677D01*
X117226534Y-104834084D01*
X117249172Y-104832000D01*
X117574390Y-104832000D01*
X117574392Y-104832000D01*
X117701686Y-104797892D01*
X117815814Y-104732000D01*
X117909000Y-104638814D01*
X117974892Y-104524686D01*
X118009000Y-104397392D01*
X118009000Y-103860176D01*
X118028685Y-103793137D01*
X118045319Y-103772495D01*
X119709495Y-102108319D01*
X119770818Y-102074834D01*
X119797176Y-102072000D01*
X121100088Y-102072000D01*
X121167127Y-102091685D01*
G37*
%TD.AperFunction*%
%TA.AperFunction,NonConductor*%
G36*
X127226715Y-91086125D02*
G01*
X127282648Y-91127997D01*
X127307065Y-91193461D01*
X127300425Y-91243256D01*
X127298650Y-91248327D01*
X127298650Y-91248328D01*
X127308890Y-91339203D01*
X127308891Y-91339208D01*
X127308892Y-91339209D01*
X127357548Y-91416645D01*
X129196022Y-93255121D01*
X129196026Y-93255124D01*
X129232003Y-93283816D01*
X129318327Y-93314022D01*
X129409208Y-93303782D01*
X129486646Y-93255124D01*
X130385027Y-92356741D01*
X130446348Y-92323258D01*
X130516039Y-92328242D01*
X130560385Y-92356741D01*
X130594294Y-92390650D01*
X130663053Y-92459409D01*
X130696538Y-92520732D01*
X130698311Y-92563274D01*
X130682022Y-92687009D01*
X130682022Y-92740656D01*
X130702642Y-92897289D01*
X130708742Y-92920054D01*
X130714652Y-92942113D01*
X130712990Y-93011962D01*
X130682559Y-93061887D01*
X130035646Y-93708800D01*
X129980062Y-93740893D01*
X129952863Y-93748181D01*
X129952855Y-93748185D01*
X129878644Y-93791030D01*
X129878636Y-93791036D01*
X129818036Y-93851636D01*
X129818030Y-93851644D01*
X129775185Y-93925855D01*
X129775182Y-93925862D01*
X129753000Y-94008647D01*
X129753000Y-98287475D01*
X129775182Y-98370263D01*
X129776203Y-98372031D01*
X129818035Y-98444485D01*
X132032814Y-100659264D01*
X134199431Y-102825880D01*
X134232916Y-102887203D01*
X134227932Y-102956895D01*
X134186060Y-103012828D01*
X134120596Y-103037245D01*
X134111750Y-103037561D01*
X133237504Y-103037561D01*
X133154719Y-103059743D01*
X133154712Y-103059746D01*
X133103168Y-103089505D01*
X133103168Y-103089506D01*
X133080496Y-103102595D01*
X128859067Y-107324024D01*
X128797744Y-107357509D01*
X128728052Y-107352525D01*
X128672119Y-107310653D01*
X128647702Y-107245189D01*
X128647386Y-107236343D01*
X128647386Y-105205548D01*
X128647385Y-105205546D01*
X128646250Y-105195474D01*
X128642234Y-105159823D01*
X128639792Y-105154753D01*
X128602552Y-105077424D01*
X128531049Y-105020402D01*
X128441890Y-105000051D01*
X128441886Y-105000051D01*
X127231386Y-105000051D01*
X127164347Y-104980366D01*
X127118592Y-104927562D01*
X127107386Y-104876051D01*
X127107386Y-100072035D01*
X127107386Y-100072033D01*
X127085204Y-99989248D01*
X127085204Y-99989247D01*
X127042351Y-99915024D01*
X125840319Y-98712992D01*
X125806834Y-98651669D01*
X125804000Y-98625311D01*
X125804000Y-92457689D01*
X125823685Y-92390650D01*
X125840319Y-92370008D01*
X126436141Y-91774186D01*
X127095702Y-91114624D01*
X127157023Y-91081141D01*
X127226715Y-91086125D01*
G37*
%TD.AperFunction*%
%TA.AperFunction,NonConductor*%
G36*
X150392082Y-107259721D02*
G01*
X150441189Y-107309423D01*
X150456000Y-107368193D01*
X150456000Y-107612311D01*
X150436315Y-107679350D01*
X150419681Y-107699992D01*
X150242252Y-107877420D01*
X150180929Y-107910905D01*
X150111237Y-107905921D01*
X150055304Y-107864049D01*
X150030887Y-107798585D01*
X150043503Y-107734604D01*
X150048675Y-107724186D01*
X150114488Y-107591607D01*
X150164181Y-107460788D01*
X150216082Y-107324160D01*
X150258290Y-107268480D01*
X150323900Y-107244458D01*
X150392082Y-107259721D01*
G37*
%TD.AperFunction*%
%TA.AperFunction,NonConductor*%
G36*
X118812589Y-107274724D02*
G01*
X118849046Y-107329295D01*
X118861986Y-107368193D01*
X118885618Y-107439237D01*
X119043164Y-107793090D01*
X119105034Y-107902000D01*
X119234485Y-108129876D01*
X119457757Y-108446383D01*
X119457773Y-108446403D01*
X119710848Y-108739594D01*
X119991351Y-109006713D01*
X119991363Y-109006724D01*
X120296568Y-109245175D01*
X120296581Y-109245185D01*
X120395134Y-109307728D01*
X120623617Y-109452728D01*
X120969348Y-109627370D01*
X121330472Y-109767440D01*
X121703541Y-109871603D01*
X122084993Y-109938863D01*
X122471189Y-109968579D01*
X122581886Y-109970125D01*
X122968761Y-109951204D01*
X123351942Y-109894620D01*
X123602947Y-109832037D01*
X123727775Y-109800915D01*
X124092660Y-109670985D01*
X124092661Y-109670984D01*
X124092668Y-109670982D01*
X124443141Y-109506062D01*
X124775848Y-109307729D01*
X125087613Y-109077876D01*
X125375460Y-108818697D01*
X125636643Y-108532666D01*
X125868667Y-108222513D01*
X125960538Y-108070815D01*
X126012103Y-108023670D01*
X126066603Y-108011051D01*
X127872678Y-108011051D01*
X127939717Y-108030736D01*
X127985472Y-108083540D01*
X127995416Y-108152698D01*
X127966391Y-108216254D01*
X127960359Y-108222732D01*
X125963410Y-110219681D01*
X125902087Y-110253166D01*
X125875729Y-110256000D01*
X119974689Y-110256000D01*
X119907650Y-110236315D01*
X119887008Y-110219681D01*
X118643705Y-108976378D01*
X118610220Y-108915055D01*
X118607386Y-108888697D01*
X118607386Y-107368437D01*
X118627071Y-107301398D01*
X118679875Y-107255643D01*
X118749033Y-107245699D01*
X118812589Y-107274724D01*
G37*
%TD.AperFunction*%
%TA.AperFunction,NonConductor*%
G36*
X135077789Y-103708246D02*
G01*
X135098431Y-103724880D01*
X138469681Y-107096130D01*
X138503166Y-107157453D01*
X138506000Y-107183811D01*
X138506000Y-114891506D01*
X138486315Y-114958545D01*
X138433511Y-115004300D01*
X138364353Y-115014244D01*
X138300797Y-114985219D01*
X138264339Y-114930647D01*
X138227767Y-114820706D01*
X138070223Y-114466856D01*
X137878901Y-114130068D01*
X137655627Y-113813558D01*
X137655618Y-113813548D01*
X137655612Y-113813540D01*
X137402537Y-113520349D01*
X137122034Y-113253230D01*
X137122022Y-113253219D01*
X136816817Y-113014768D01*
X136816804Y-113014758D01*
X136589991Y-112870818D01*
X136489769Y-112807216D01*
X136144038Y-112632574D01*
X136031589Y-112588958D01*
X135782918Y-112492505D01*
X135782913Y-112492503D01*
X135409841Y-112388340D01*
X135028396Y-112321081D01*
X134883632Y-112309942D01*
X134642197Y-112291365D01*
X134642190Y-112291364D01*
X134642195Y-112291364D01*
X134533066Y-112289840D01*
X134531500Y-112289819D01*
X134531499Y-112289819D01*
X134144632Y-112308739D01*
X133761441Y-112365324D01*
X133385610Y-112459028D01*
X133020725Y-112588958D01*
X132670236Y-112753886D01*
X132337537Y-112952215D01*
X132025766Y-113182073D01*
X131737933Y-113441240D01*
X131737919Y-113441254D01*
X131476746Y-113727273D01*
X131244715Y-114037436D01*
X131244713Y-114037439D01*
X131152848Y-114189128D01*
X131101283Y-114236274D01*
X131046783Y-114248893D01*
X128837688Y-114248893D01*
X128770649Y-114229208D01*
X128750007Y-114212574D01*
X126078471Y-111541037D01*
X126078470Y-111541036D01*
X126078469Y-111541035D01*
X126041357Y-111519608D01*
X126004247Y-111498182D01*
X125962853Y-111487091D01*
X125921460Y-111476000D01*
X125921459Y-111476000D01*
X118874689Y-111476000D01*
X118807650Y-111456315D01*
X118787008Y-111439681D01*
X117999900Y-110652573D01*
X117966415Y-110591250D01*
X117971399Y-110521558D01*
X117976570Y-110509642D01*
X118012729Y-110437028D01*
X118073615Y-110223036D01*
X118094143Y-110001500D01*
X118091092Y-109968579D01*
X118073615Y-109779964D01*
X118048177Y-109690560D01*
X118024120Y-109606007D01*
X118024706Y-109536142D01*
X118062973Y-109477684D01*
X118126770Y-109449193D01*
X118195843Y-109459717D01*
X118231067Y-109484394D01*
X119588638Y-110841965D01*
X119662861Y-110884818D01*
X119745647Y-110907000D01*
X119745649Y-110907000D01*
X126104769Y-110907000D01*
X126104771Y-110907000D01*
X126187557Y-110884818D01*
X126261780Y-110841965D01*
X133378865Y-103724880D01*
X133440188Y-103691395D01*
X133466546Y-103688561D01*
X135010750Y-103688561D01*
X135077789Y-103708246D01*
G37*
%TD.AperFunction*%
%TA.AperFunction,NonConductor*%
G36*
X137629458Y-101816685D02*
G01*
X137650100Y-101833319D01*
X140379682Y-104562900D01*
X140413167Y-104624223D01*
X140416001Y-104650581D01*
X140416001Y-106804397D01*
X140421152Y-106850121D01*
X140460834Y-106932519D01*
X140460835Y-106932520D01*
X140532338Y-106989542D01*
X140607704Y-107006744D01*
X140621496Y-107009892D01*
X140621501Y-107009893D01*
X142553104Y-107009893D01*
X142620143Y-107029578D01*
X142665898Y-107082382D01*
X142673628Y-107104737D01*
X142678227Y-107123751D01*
X142678228Y-107123756D01*
X142678229Y-107123757D01*
X142805611Y-107489549D01*
X142805613Y-107489553D01*
X142805615Y-107489559D01*
X142968076Y-107841157D01*
X142968079Y-107841163D01*
X142968080Y-107841164D01*
X142981507Y-107864049D01*
X143164088Y-108175252D01*
X143302390Y-108365607D01*
X143391757Y-108488610D01*
X143648920Y-108778260D01*
X143933121Y-109041434D01*
X144241647Y-109275617D01*
X144571552Y-109478576D01*
X144919688Y-109648373D01*
X145282732Y-109783388D01*
X145657219Y-109882332D01*
X146039572Y-109944259D01*
X146085519Y-109947149D01*
X146126434Y-109949724D01*
X146192105Y-109973579D01*
X146234454Y-110029151D01*
X146240036Y-110098798D01*
X146207077Y-110160406D01*
X146206329Y-110161160D01*
X142154917Y-114212574D01*
X142093594Y-114246059D01*
X142067236Y-114248893D01*
X140071495Y-114248893D01*
X140025771Y-114254044D01*
X139943373Y-114293726D01*
X139886351Y-114365229D01*
X139866000Y-114454388D01*
X139866000Y-115724893D01*
X139846315Y-115791932D01*
X139793511Y-115837687D01*
X139742000Y-115848893D01*
X139596810Y-115848893D01*
X139529771Y-115829208D01*
X139498434Y-115800379D01*
X139422460Y-115701368D01*
X139422454Y-115701361D01*
X139384531Y-115663438D01*
X139384524Y-115663432D01*
X139259198Y-115567266D01*
X139259196Y-115567265D01*
X139259190Y-115567260D01*
X139257359Y-115566202D01*
X139218998Y-115544054D01*
X139170783Y-115493486D01*
X139157000Y-115436668D01*
X139157000Y-106954771D01*
X139156999Y-106954767D01*
X139150570Y-106930773D01*
X139150568Y-106930766D01*
X139134819Y-106871987D01*
X139134818Y-106871985D01*
X139134818Y-106871984D01*
X139091965Y-106797761D01*
X135396801Y-103102596D01*
X135396800Y-103102595D01*
X135172478Y-102878273D01*
X135138993Y-102816950D01*
X135143977Y-102747258D01*
X135185849Y-102691325D01*
X135237369Y-102668705D01*
X135438440Y-102631118D01*
X135645901Y-102550747D01*
X135835062Y-102433624D01*
X135999481Y-102283736D01*
X136133558Y-102106189D01*
X136232729Y-101907028D01*
X136238409Y-101887064D01*
X136275689Y-101827972D01*
X136338998Y-101798415D01*
X136357675Y-101797000D01*
X137562419Y-101797000D01*
X137629458Y-101816685D01*
G37*
%TD.AperFunction*%
%TA.AperFunction,NonConductor*%
G36*
X117583615Y-106430736D02*
G01*
X117614952Y-106459565D01*
X117690925Y-106558575D01*
X117690931Y-106558582D01*
X117728854Y-106596505D01*
X117728860Y-106596510D01*
X117854196Y-106692684D01*
X117894387Y-106715889D01*
X117942601Y-106766453D01*
X117956386Y-106823274D01*
X117956386Y-109069700D01*
X117936701Y-109136739D01*
X117883897Y-109182494D01*
X117814739Y-109192438D01*
X117751183Y-109163413D01*
X117748848Y-109161337D01*
X117615062Y-109039376D01*
X117615060Y-109039374D01*
X117425904Y-108922254D01*
X117425898Y-108922252D01*
X117218440Y-108841882D01*
X116999743Y-108801000D01*
X116777257Y-108801000D01*
X116558560Y-108841882D01*
X116437717Y-108888697D01*
X116351101Y-108922252D01*
X116351095Y-108922254D01*
X116161939Y-109039374D01*
X116161937Y-109039376D01*
X115997520Y-109189261D01*
X115863443Y-109366808D01*
X115863438Y-109366816D01*
X115764275Y-109565961D01*
X115764269Y-109565976D01*
X115703385Y-109779962D01*
X115703384Y-109779964D01*
X115682857Y-110001499D01*
X115682857Y-110001500D01*
X115703384Y-110223035D01*
X115703385Y-110223037D01*
X115764269Y-110437023D01*
X115764275Y-110437038D01*
X115863438Y-110636183D01*
X115863443Y-110636191D01*
X115997520Y-110813738D01*
X116161937Y-110963623D01*
X116161939Y-110963625D01*
X116351095Y-111080745D01*
X116351096Y-111080745D01*
X116351099Y-111080747D01*
X116558560Y-111161118D01*
X116777257Y-111202000D01*
X116777259Y-111202000D01*
X116999741Y-111202000D01*
X116999743Y-111202000D01*
X117218440Y-111161118D01*
X117409316Y-111087171D01*
X117478940Y-111081310D01*
X117540680Y-111114020D01*
X117541791Y-111115118D01*
X118428034Y-112001361D01*
X118428035Y-112001362D01*
X118488638Y-112061965D01*
X118488640Y-112061966D01*
X118488644Y-112061969D01*
X118562855Y-112104814D01*
X118562862Y-112104818D01*
X118645647Y-112127000D01*
X118731353Y-112127000D01*
X125692418Y-112127000D01*
X125759457Y-112146685D01*
X125780099Y-112163319D01*
X128429681Y-114812900D01*
X128463166Y-114874223D01*
X128466000Y-114900581D01*
X128466000Y-117054397D01*
X128471151Y-117100121D01*
X128510833Y-117182519D01*
X128510834Y-117182520D01*
X128582337Y-117239542D01*
X128648928Y-117254741D01*
X128671495Y-117259892D01*
X128671500Y-117259893D01*
X130603104Y-117259893D01*
X130670143Y-117279578D01*
X130715898Y-117332382D01*
X130723628Y-117354737D01*
X130728227Y-117373751D01*
X130728228Y-117373756D01*
X130728229Y-117373757D01*
X130855611Y-117739549D01*
X130855613Y-117739553D01*
X130855615Y-117739559D01*
X131018076Y-118091157D01*
X131214088Y-118425252D01*
X131320344Y-118571500D01*
X131441757Y-118738610D01*
X131698920Y-119028260D01*
X131701898Y-119031018D01*
X131737713Y-119091009D01*
X131735408Y-119160840D01*
X131695715Y-119218340D01*
X131631237Y-119245253D01*
X131617648Y-119246000D01*
X125494001Y-119246000D01*
X125426962Y-119226315D01*
X125381207Y-119173511D01*
X125371263Y-119104353D01*
X125383000Y-119066731D01*
X125412729Y-119007028D01*
X125473615Y-118793036D01*
X125494143Y-118571500D01*
X125473615Y-118349964D01*
X125412729Y-118135972D01*
X125412724Y-118135961D01*
X125313561Y-117936816D01*
X125313556Y-117936808D01*
X125179479Y-117759261D01*
X125015062Y-117609376D01*
X125015060Y-117609374D01*
X124825904Y-117492254D01*
X124825898Y-117492252D01*
X124618440Y-117411882D01*
X124399743Y-117371000D01*
X124177257Y-117371000D01*
X123958560Y-117411882D01*
X123827364Y-117462707D01*
X123751101Y-117492252D01*
X123751095Y-117492254D01*
X123561939Y-117609374D01*
X123561937Y-117609376D01*
X123397520Y-117759261D01*
X123263443Y-117936808D01*
X123263438Y-117936816D01*
X123164275Y-118135961D01*
X123164269Y-118135976D01*
X123103385Y-118349962D01*
X123103384Y-118349964D01*
X123082857Y-118571499D01*
X123082857Y-118571501D01*
X123097794Y-118732706D01*
X123084379Y-118801276D01*
X123036022Y-118851708D01*
X122968075Y-118867990D01*
X122902113Y-118844952D01*
X122886642Y-118831828D01*
X114255319Y-110200505D01*
X114221834Y-110139182D01*
X114219000Y-110112824D01*
X114219000Y-108115669D01*
X114238685Y-108048630D01*
X114291489Y-108002875D01*
X114360647Y-107992931D01*
X114370571Y-107994773D01*
X114441886Y-108011051D01*
X117041889Y-108011051D01*
X117041889Y-108011050D01*
X117087614Y-108005899D01*
X117170013Y-107966217D01*
X117227035Y-107894714D01*
X117247386Y-107805551D01*
X117247386Y-106535051D01*
X117267071Y-106468012D01*
X117319875Y-106422257D01*
X117371386Y-106411051D01*
X117516576Y-106411051D01*
X117583615Y-106430736D01*
G37*
%TD.AperFunction*%
%TA.AperFunction,NonConductor*%
G36*
X138442082Y-117509720D02*
G01*
X138491189Y-117559422D01*
X138506000Y-117618192D01*
X138506000Y-118852311D01*
X138486315Y-118919350D01*
X138469681Y-118939992D01*
X137239992Y-120169681D01*
X137178669Y-120203166D01*
X137152311Y-120206000D01*
X135960259Y-120206000D01*
X135893220Y-120186315D01*
X135847465Y-120133511D01*
X135837521Y-120064353D01*
X135866546Y-120000797D01*
X135920298Y-119964616D01*
X135990946Y-119940565D01*
X135990948Y-119940563D01*
X135990957Y-119940561D01*
X136343699Y-119780550D01*
X136679142Y-119586882D01*
X136693352Y-119576709D01*
X136768418Y-119522966D01*
X136994086Y-119361404D01*
X137285525Y-119106269D01*
X137550675Y-118823912D01*
X137787007Y-118517029D01*
X137992264Y-118188549D01*
X138164488Y-117841606D01*
X138266082Y-117574159D01*
X138308290Y-117518479D01*
X138373900Y-117494457D01*
X138442082Y-117509720D01*
G37*
%TD.AperFunction*%
%TA.AperFunction,NonConductor*%
G36*
X132434870Y-119613923D02*
G01*
X132440418Y-119617141D01*
X132621552Y-119728576D01*
X132969688Y-119898373D01*
X133063655Y-119933319D01*
X133150932Y-119965777D01*
X133206905Y-120007595D01*
X133231385Y-120073036D01*
X133216598Y-120141323D01*
X133167240Y-120190776D01*
X133107709Y-120206000D01*
X132842320Y-120206000D01*
X132810228Y-120201775D01*
X132751354Y-120186000D01*
X132751353Y-120186000D01*
X132714688Y-120186000D01*
X132647649Y-120166315D01*
X132627007Y-120149681D01*
X132287762Y-119810436D01*
X132254277Y-119749113D01*
X132259261Y-119679421D01*
X132301133Y-119623488D01*
X132366597Y-119599071D01*
X132434870Y-119613923D01*
G37*
%TD.AperFunction*%
%TA.AperFunction,NonConductor*%
G36*
X151759039Y-106429578D02*
G01*
X151804794Y-106482382D01*
X151816000Y-106533893D01*
X151816000Y-106804397D01*
X151821151Y-106850121D01*
X151860833Y-106932519D01*
X151860834Y-106932520D01*
X151932337Y-106989542D01*
X152007703Y-107006744D01*
X152021495Y-107009892D01*
X152021500Y-107009893D01*
X153062931Y-107009893D01*
X153129970Y-107029578D01*
X153175725Y-107082382D01*
X153185669Y-107151540D01*
X153156644Y-107215096D01*
X153150612Y-107221574D01*
X152648002Y-107724183D01*
X152648000Y-107724186D01*
X152582108Y-107838312D01*
X152548000Y-107965608D01*
X152548000Y-108172824D01*
X152528315Y-108239863D01*
X152511681Y-108260505D01*
X139917505Y-120854681D01*
X139856182Y-120888166D01*
X139829824Y-120891000D01*
X137738689Y-120891000D01*
X137671650Y-120871315D01*
X137625895Y-120818511D01*
X137615951Y-120749353D01*
X137644976Y-120685797D01*
X137651008Y-120679319D01*
X138365711Y-119964616D01*
X139091965Y-119238362D01*
X139134818Y-119164139D01*
X139157000Y-119081353D01*
X139157000Y-118995647D01*
X139157000Y-117072116D01*
X139176685Y-117005077D01*
X139218997Y-116964731D01*
X139259190Y-116941526D01*
X139384526Y-116845352D01*
X139422459Y-116807419D01*
X139498434Y-116708407D01*
X139554862Y-116667204D01*
X139596810Y-116659893D01*
X139742000Y-116659893D01*
X139809039Y-116679578D01*
X139854794Y-116732382D01*
X139866000Y-116783893D01*
X139866000Y-117054397D01*
X139871151Y-117100121D01*
X139910833Y-117182519D01*
X139910834Y-117182520D01*
X139982337Y-117239542D01*
X140048928Y-117254741D01*
X140071495Y-117259892D01*
X140071500Y-117259893D01*
X142671503Y-117259893D01*
X142671503Y-117259892D01*
X142717228Y-117254741D01*
X142799627Y-117215059D01*
X142856649Y-117143556D01*
X142877000Y-117054393D01*
X142877000Y-114462506D01*
X142896685Y-114395467D01*
X142913319Y-114374825D01*
X146844826Y-110443319D01*
X146906149Y-110409834D01*
X146932507Y-110407000D01*
X148541351Y-110407000D01*
X148541353Y-110407000D01*
X148624139Y-110384818D01*
X148698362Y-110341965D01*
X150971152Y-108069172D01*
X150971157Y-108069169D01*
X150981360Y-108058965D01*
X150981362Y-108058965D01*
X151041965Y-107998362D01*
X151084818Y-107924138D01*
X151099889Y-107867892D01*
X151107001Y-107841352D01*
X151107001Y-107755647D01*
X151107001Y-107748052D01*
X151107000Y-107748034D01*
X151107000Y-106822116D01*
X151126685Y-106755077D01*
X151168997Y-106714731D01*
X151209190Y-106691526D01*
X151334526Y-106595352D01*
X151372459Y-106557419D01*
X151448434Y-106458407D01*
X151504862Y-106417204D01*
X151546810Y-106409893D01*
X151692000Y-106409893D01*
X151759039Y-106429578D01*
G37*
%TD.AperFunction*%
%TA.AperFunction,NonConductor*%
G36*
X124940679Y-119684019D02*
G01*
X124941791Y-119685117D01*
X125023694Y-119767020D01*
X125023704Y-119767031D01*
X125028034Y-119771361D01*
X125028035Y-119771362D01*
X125088638Y-119831965D01*
X125088640Y-119831966D01*
X125088644Y-119831969D01*
X125108726Y-119843563D01*
X125162862Y-119874818D01*
X125245648Y-119897001D01*
X125245650Y-119897001D01*
X125338949Y-119897001D01*
X125338965Y-119897000D01*
X131402311Y-119897000D01*
X131469350Y-119916685D01*
X131489992Y-119933319D01*
X132235993Y-120679319D01*
X132269478Y-120740642D01*
X132264494Y-120810333D01*
X132222622Y-120866267D01*
X132157158Y-120890684D01*
X132148312Y-120891000D01*
X124997176Y-120891000D01*
X124930137Y-120871315D01*
X124909495Y-120854681D01*
X124029392Y-119974578D01*
X123995907Y-119913255D01*
X124000891Y-119843563D01*
X124042763Y-119787630D01*
X124108227Y-119763213D01*
X124139858Y-119765008D01*
X124177257Y-119772000D01*
X124177258Y-119772000D01*
X124399741Y-119772000D01*
X124399743Y-119772000D01*
X124618440Y-119731118D01*
X124809319Y-119657170D01*
X124878939Y-119651309D01*
X124940679Y-119684019D01*
G37*
%TD.AperFunction*%
M02*
